<svg viewBox="0 0 178 30" xmlns="http://www.w3.org/2000/svg" xml:space="preserve" style="fill-rule:evenodd;clip-rule:evenodd;stroke-linejoin:round;stroke-miterlimit:2"><path d="M29.828 29.766h-28.5v-28.5h7.125v7.125h7.125v7.125h7.125V1.266h7.125v28.5Zm35.625 0h-7.125v-7.125h-7.125v7.125h-14.25v-28.5h14.25v7.125h7.125V1.266h7.125v28.5Zm35.624 0H72.578v-28.5h28.499v7.125h-7.124v7.125h-7.125v7.125h14.249v7.125Zm35.626 0h-7.126v-7.125h7.126v7.125Zm-14.25 0h-14.25v-28.5h28.5v14.25h-7.126V8.391h-7.124v7.125h7.124v7.125h-7.124v7.125Zm49.874 0h-28.5v-28.5h28.5v7.125h-7.124v7.125h-7.126v7.125h14.25v7.125Z" style="fill-rule:nonzero"/></svg>