<svg viewBox="0 0 240 160" xmlns="http://www.w3.org/2000/svg" xml:space="preserve" style="fill-rule:evenodd;clip-rule:evenodd;stroke-linecap:round">
  <path d="M177.639 3.418c-18.696-.398-37.369-1.642-56.068-.473-10.169.636-20.084-1.029-30.217-1.029-12.982 0-25.692 1.144-38.555 1.974-8.61.556-17.051-.444-25.519 1.029-3.349.582-6.816 3.561-9.701 5.226-2.329 1.343-5.354 3.449-6.561 6.004-1.144 2.423-1.26 6.575-1.529 9.257-.473 4.739-2.727 8.377-4.586 12.648-1 2.297-2.556 4.505-3.086 6.977-.648 3.023-.34 6.404-.306 9.479.045 3.934 1.239 7.609 2.002 11.425.616 3.081 1.113 6.105 1.612 9.201 1.127 6.986 2.333 13.922 2.78 21.015.315 5.007-.105 10.032.139 15.039.233 4.773 2.734 10.447 4.698 14.733 1.714 3.739 4.458 6.594 6.894 9.813 3.981 5.261 8.868 9.446 14.705 12.537 3.825 2.025 8.83 2.586 13.009 3.53 4.013.906 7.916 1.154 11.981 1.612 10.422 1.174 21.206 3.391 31.69 3.614 10.614.226 21.199 1 31.828 1 7.75 0 15.556-.172 23.267.529 6.636.603 13.323.472 20.015.472 4.243 0 10.047-.18 14.01-1.501" style="fill:none;fill-rule:nonzero;stroke:#000;stroke-width:.9px"/>
  <path d="M37.538 16.427c-2.606 1.017-6.66 2.251-8.117 5.004-1.365 2.577-.035 5.945 2.891 6.477 1.154.209 3.224-.089 3.224 1.528 0 1.364.108 2.614-.778 3.753-2.079 2.673-5.349 3.026-8.228 4.754M51.548 18.929c-2.296.448-6.192 1.011-7.728 3.113-1.812 2.48-1.779 4.006-1.779 7.005 0 3.759.206 6.159 3.781 7.895 1.723.837 6.006 2.105 7.449.25 3.353-4.311 3.367-14.217-1.723-16.762M71.062 20.93c-6.253 2.126-12.948 4.62-12.509 12.509.252 4.532 7.652 4.955 10.507 4.003M78.067 20.43c-1.261 6.165-4.503 11.238-4.503 17.512M77.567 38.943c.645-1.898 2.385-5.029 2.501-7.005.079-1.333.064-2.844 1.112-3.891 1.257-1.257 2.811-3.125 4.392-4.003 1.025-.57 2.347-2.545 3.503-2.613 6.886-.405 2.001 15.15 2.001 18.513" style="fill:none;fill-rule:nonzero;stroke:#000;stroke-width:.9px"/>
  <path d="M84.071 32.939c2.179-.446 4.276-1.001 6.505-1.001M98.582 22.431c-.505 2.589-1.865 5.411-2.002 8.006-.114 2.168-.141 4.157-.528 6.282-.148.815-1.968 5.587-.222 5.199 1.795-.399 3.382-.473 5.254-.473M126.102 26.935c-4.219 0-14.01-.74-14.01 5.754 0 4.236 4.218 6.755 8.005 6.755M124.601 40.945c.745-3.823 1.657-7.039 3.391-10.508 1.636-3.273 3.332-2.332 6.338-1.473 1.952.558 2.78 4.052 2.78 5.726 0 2.27-1.501 4.17-1.501 6.255" style="fill:none;fill-rule:nonzero;stroke:#000;stroke-width:.9px"/>
  <path d="M128.604 36.942c2.203-.054 4.284-.5 6.504-.5M140.112 40.945c-.725-3.713-2.14-9.959.5-13.26 2.34-2.925 8.219-2.275 9.618 1.362 1.095 2.846 2.397 4.399-.389 6.171-1.755 1.118-3.88.15-5.448 1.196-.492.328 1.201.14 1.723.417.652.345 1.755 1.004 2.113 1.612.702 1.194 2.234 2.731 3.391 3.503M155.123 41.445c0-1.43-1.079-10.945.25-12.009.449-.358.586-3.052.778-3.724.281-.982 4.285.722 5.087.722 5.263 0 6.336 3.89 5.365 8.256-.868 3.906-5.054 6.114-8.478 7.256M30.532 72.968c.812-4.418 2.213-6.505 6.95-6.505 3.884 0 4.688.656 7.172 2.891 1.062.956 6.022.594 7.394.612 1.246.016 6.615-.863 7.505.25 1.971 2.463 7.371 3.818 10.397 3.753 2.239-.049 4.239-1.001 6.505-1.001 4.614 0 9.143.84 13.76 1.028 1.768.072 3.639.839 5.365.223 2.045-.731 5.427-.723 7.616-.751 4.184-.053 8.021-.5 12.176-.5 3.193 0 6.229 1.001 9.395 1.001 1.794 0 3.476-.501 5.337-.501M34.035 92.983c1.581-.253 6.591-1.986 8.117-.612 2.386 2.148 5.523.895 8.117 2.14.898.431 2.273 1.974 3.28 1.974.903 0 1.284-1.001 2.252-1.001h8.756M71.062 96.985c5.832 2.121 13.204 1.001 19.403 1.001h8.617c3.873 0 7.646 1.001 11.508 1.001M34.535 105.992c4.362 2.908 11.258 1.501 16.401 1.501h7.617M70.061 107.993c5.329 1.706 11.236 1.001 16.79 1.001 2.963 0 5.855.349 8.729.5 4.479.236 9.022 0 13.509 0M36.036 122.003c6.864 0 13.647.501 20.515.501M69.561 123.505c3.36-.549 6.615-.501 10.007-.501M47.044 135.513c2.357 1.803 7.236 4.426 8.006 7.506" style="fill:none;fill-rule:nonzero;stroke:#000;stroke-width:.9px"/>
  <path d="M47.545 143.019c1.841-.921 5.796-1.849 7.227-3.281.502-.501.643-.904 1.279-1.223M60.554 138.015c.982 2.425 1.967 3.993 4.114 5.504.729.513 2.055.83 2.391 1.501" style="fill:none;fill-rule:nonzero;stroke:#000;stroke-width:.9px"/>
  <path d="M59.554 144.52c3.336-1.94 8.444-5.504 12.509-5.504M74.064 139.016c2.856 2.772 6.222 4.72 9.007 7.505" style="fill:none;fill-rule:nonzero;stroke:#000;stroke-width:.9px"/>
  <path d="M76.566 147.522c1.506-3.722 3.751-5.252 6.504-8.006M84.572 140.517c1.37 1.809 2.3 3.736 3.613 5.504.742.998 2.483 1.684 2.892 2.502" style="fill:none;fill-rule:nonzero;stroke:#000;stroke-width:.9px"/>
  <path d="M85.572 148.522c1.633-1.632 4.405-6.305 6.505-7.005M95.58 146.021c1.799-.395 3.184-1.001 5.003-1.001.945 0 1.473.5 2.502.5M107.588 141.517c.428 2.71.646 5.941 1.501 8.507" style="fill:none;fill-rule:nonzero;stroke:#000;stroke-width:.9px"/>
  <path d="M103.085 152.025c3.214-2.447 6.318-4.723 8.506-8.006M113.593 142.018c1.977 2.689 4.171 5.256 6.004 8.006" style="fill:none;fill-rule:nonzero;stroke:#000;stroke-width:.9px"/>
  <path d="M112.592 150.024c1.913-1.867 3.849-3.767 6.393-4.615 1.066-.355 1.993-.46 2.613-1.39M122.599 143.519c2.179 1.382 3.741 3.179 5.893 4.503.875.539 1.789 1.031 2.113 2.002" style="fill:none;fill-rule:nonzero;stroke:#000;stroke-width:.9px"/>
  <path d="M124.1 152.025c.822-3.835 2.146-6.719 6.004-8.006M177.139 138.015c-1.496.036-6.73 1.554-8.006.278-1.247-1.247-1.001-5.965-1.001-7.617 0-3.818-1-7.566-1-11.286v-15.622c0-4.725-.57-9.888.111-14.566.718-4.936.389-9.166.389-14.121 0-4.103 1.001-8.021 1.001-12.12v-7.005c0-4.048 6.158-.309 7.005-2.002" style="fill:none;fill-rule:nonzero;stroke:#000;stroke-width:.9px"/>
  <path d="M176.638 130.51c-3.157 1.644-2.776 2.328-4.114 5.003-.585 1.171-1.833 1.386-2.391 2.502" style="fill:none;fill-rule:nonzero;stroke:#000;stroke-width:.9px"/>
</svg>
