<?xml version="1.0" standalone="no"?>
<!DOCTYPE svg PUBLIC "-//W3C//DTD SVG 20010904//EN"
 "http://www.w3.org/TR/2001/REC-SVG-20010904/DTD/svg10.dtd">
<svg version="1.0" xmlns="http://www.w3.org/2000/svg"
 width="512.000000pt" height="512.000000pt" viewBox="0 0 512.000000 512.000000"
 preserveAspectRatio="xMidYMid meet">
<metadata>
Created by potrace 1.14, written by Peter Selinger 2001-2017
</metadata>
<g transform="translate(0.000000,512.000000) scale(0.100000,-0.100000)"
fill="#000000" stroke="none">
<path d="M1893 4486 c-103 -143 -244 -337 -313 -431 -69 -93 -135 -184 -148
-202 l-22 -31 290 0 c247 1 295 3 320 17 26 14 213 194 737 706 84 83 153 158
153 168 0 10 -11 22 -24 27 -13 4 -199 8 -414 8 l-390 -1 -189 -261z"/>
<path d="M3920 4453 c-118 -164 -268 -370 -333 -457 -64 -88 -113 -162 -108
-165 5 -3 135 -6 290 -5 l280 1 38 26 c21 14 122 108 224 209 103 100 291 284
418 408 196 189 231 228 229 250 l-3 25 -410 3 -410 2 -215 -297z"/>
<path d="M1657 3464 c-1 -1 -54 -4 -117 -8 -63 -3 -125 -8 -136 -10 -12 -2
-39 -7 -60 -10 -458 -73 -809 -363 -962 -796 -35 -99 -68 -253 -108 -495 -2
-16 -13 -79 -24 -140 -30 -172 -32 -179 -36 -205 -13 -76 -15 -269 -5 -338 61
-391 342 -645 809 -731 394 -73 970 -18 1184 112 54 32 51 25 78 177 12 63 27
142 33 175 l13 60 11 -32 c30 -83 138 -212 243 -289 93 -68 249 -145 327 -160
12 -2 34 -9 48 -14 14 -5 40 -12 58 -15 18 -3 57 -10 87 -15 198 -35 623 -32
796 5 12 3 39 7 60 11 97 15 248 67 313 108 40 25 35 11 76 236 2 8 6 26 9 40
3 14 8 36 10 50 2 14 12 67 21 117 9 51 17 96 16 100 -2 15 -86 9 -141 -10
-211 -71 -455 -109 -715 -111 -318 -3 -464 35 -560 146 -64 75 -86 199 -62
346 l10 62 456 1 c480 1 517 2 621 20 36 7 72 13 81 14 33 6 117 34 170 56
133 56 252 164 323 293 65 117 126 369 127 516 0 325 -250 598 -636 695 -149
37 -397 50 -580 31 -227 -25 -463 -111 -635 -231 -62 -43 -250 -230 -250 -248
0 -7 -10 8 -23 33 -52 103 -137 199 -238 267 -49 34 -189 105 -189 96 0 -3 -6
-1 -12 4 -17 13 -135 48 -213 62 -51 10 -272 30 -278 25z m88 -566 c111 -25
184 -79 225 -165 18 -37 23 -67 24 -128 2 -192 -96 -317 -279 -355 -65 -13
-728 -21 -748 -8 -22 13 37 272 88 383 71 155 224 259 418 284 69 9 210 4 272
-11z m2055 6 c164 -43 251 -144 251 -295 1 -172 -81 -291 -233 -342 -59 -19
-89 -20 -435 -23 -205 -1 -373 -1 -373 1 0 13 34 184 47 235 62 248 216 395
453 433 53 8 246 2 290 -9z m-1504 -953 c-3 -5 -8 -24 -10 -42 -3 -19 -7 -49
-10 -66 -23 -129 -28 -290 -12 -394 l8 -45 -89 -27 c-97 -30 -228 -63 -283
-72 -19 -3 -46 -7 -60 -10 -87 -15 -160 -19 -360 -20 -245 0 -281 4 -383 35
-124 38 -218 143 -233 260 -3 25 -6 47 -7 50 -3 18 16 179 23 190 7 11 95 14
477 15 468 2 498 3 648 31 81 15 260 78 270 95 4 5 11 9 16 9 6 0 8 -4 5 -9z"/>
</g>
</svg>
