<svg viewBox="0 0 100 10" xmlns="http://www.w3.org/2000/svg" xml:space="preserve" style="fill-rule:evenodd;clip-rule:evenodd;stroke-linejoin:round;stroke-miterlimit:2">
  <path d="M26.837 2.997c-.325-.008-.651-.056-.976-.083-.621-.053-1.237-.048-1.839.155-.717.243-1.41.667-2.104 1.07-.527.306-1.05.608-1.609.701-4.149.696-15.595-.019-17.748.444-1.031.222-1.184.968-1.128 1.331a1 1 0 0 0 1.639.607c2.356-.424 13.495.274 17.568-.409.786-.132 1.54-.513 2.283-.945.576-.335 1.144-.703 1.739-.904.426-.144.866-.075 1.306-.031.445.044.892.084 1.333.051.277-.021.589-.145.87-.426 1.061 1.695 2.921 2.938 5.038 2.739.737-.069 1.407-.329 2.075-.617.703-.304 1.4-.67 2.284-.566.74.087 1.43.396 2.13.683.883.363 1.777.701 2.74.771 4.082.297 7.879-.879 11.887-.879.823 0 1.69.447 2.539.729.802.265 1.591.416 2.325.282.638-.116 1.232-.437 1.813-.824.582-.389 1.139-.883 1.818-1.009.774-.144 1.496.086 2.194.408.874.405 1.71.963 2.533 1.39.361.187 1.235.779 1.954.999.585.179 1.116.137 1.501-.075.299-.165.561-.443.778-.782.141-.221.244-.491.4-.648.417-.42 1.041-.449 1.673-.441.922.013 1.885.178 2.657.178 2.956 0 7.16-.917 10.05-.092.054.045.303.26.458.401.42.382.917.741 1.505.871a2.173 2.173 0 0 0 1.425-.156c.329-.148.613-.41.992-.545.856-.305 4.672-.431 5.379-.46l.067-.004h.011l.008-.002c.653-.068.66-.598.498-1.095.085-.43.015-.836-.485-.892-.009-.007-.016-.011-.021-.011a.99.99 0 0 0-.095.005l-.063.001c-.785.031-5.018.235-5.969.573a3.914 3.914 0 0 0-.743.374c-.106.065-.208.131-.313.189-.078.042-.155.093-.261.069-.185-.04-.328-.169-.466-.287-.171-.147-.328-.302-.476-.432-.288-.251-.574-.427-.842-.506-3.053-.894-7.521-.001-10.659-.001-.941 0-2.162-.237-3.255-.162-.966.066-1.841.357-2.495 1.017-.186.188-.355.449-.514.725a6.315 6.315 0 0 1-.165.26 3.69 3.69 0 0 1-.425-.165c-.486-.243-.954-.56-1.187-.681-.849-.441-1.714-1.013-2.615-1.43-1.078-.498-2.205-.781-3.4-.559-.809.15-1.53.604-2.226 1.082-.458.315-.894.658-1.396.749-.564.103-1.168-.145-1.79-.371-.911-.33-1.84-.672-2.717-.672-3.96 0-7.709 1.177-11.742.884-.749-.054-1.438-.343-2.125-.626-.87-.357-1.736-.711-2.656-.819-1.088-.128-1.999.16-2.872.527-.627.263-1.222.587-1.907.651-1.86.174-3.335-1.463-3.707-3.125a.962.962 0 0 0-.544-.7c-.289-.142-.68-.213-1.097.129a1.49 1.49 0 0 0-.347.462c-.094.182-.359.677-.491.925ZM3.418 6.378l.001.015v-.008l-.001-.007Z"/>
</svg>
