<svg viewBox="0 0 43 10" xmlns="http://www.w3.org/2000/svg" xml:space="preserve" style="fill-rule:evenodd;clip-rule:evenodd;stroke-linejoin:round;stroke-miterlimit:2">
  <path d="M25.877 4.445a1.086 1.086 0 0 0-.707-.145c-.392.042-2.484.206-3.119.256a11.252 11.252 0 0 0-.255-.44c-.192-.308-.429-.561-.71-.72-.431-.244-.934-.256-1.457-.036-.26.109-.646.363-.925.558-.187-.166-.401-.321-.57-.349a1.198 1.198 0 0 0-.773.124l-.857-.143s.067.036.089.051c-.007-.005-.317-.178-.903-.162-1.868.05-11.219.384-13.251.739-.457.08-.728.232-.827.312a.987.987 0 0 0-.387.804 1 1 0 0 0 1.499.866l.059-.012c1.988-.347 11.134-.661 12.961-.71l.145-.003c.372.123.911.25 1.358.264.14.004.272-.004.395-.021.041.051.082.095.117.126.314.278.693.416 1.199.271.258-.074.633-.321 1.018-.6.056-.041.132-.09.207-.135.081.141.18.312.246.415.202.319.45.549.721.674.155.072.476.147.909.149.675.003 1.811-.116 2.588-.205.205.786.436 1.792.555 2.074.171.406.449.55.566.602.031.013 1.224.193 1.411-.867.069-.392.275-1.673.556-2.905.337.45.747.724 1.133.799 1.272.247 9.018-.218 10.554-.284l.159-.005.056.001a1 1 0 0 0 1-1c0-.196-.04-.846-.828-.986a2.999 2.999 0 0 0-.474-.008c-1.421.061-8.404.523-9.952.339a3.358 3.358 0 0 1-.217-.339c-.317-.615-.536-1.388-.619-1.583-.221-.521-.629-.612-.737-.635-.388-.084-.756.001-1.039.411-.245.354-.501 1.001-.716 1.769-.061.22-.121.452-.178.689Zm13.242 1.198a.998.998 0 0 1-.482-.855c0 .266.074.614.482.855Zm-35.902-.23Zm.006-.058-.003.028.002-.017.001-.011Z"/>
</svg>
