<svg viewBox="0 0 43 10" xmlns="http://www.w3.org/2000/svg" xml:space="preserve" style="fill-rule:evenodd;clip-rule:evenodd;stroke-linejoin:round;stroke-miterlimit:2">
  <path d="M22.31 5.118c-.496-.817-1.668-2.255-3.689-2.056-1.473.145-2.123.518-2.556.845-.123.093-.228.185-.327.271-.062.055-.105.121-.204.139-.193.035-.63-.017-1.164-.076-1.574-.174-3.807-.549-4.279-.575-.196-.01-.488.023-.843.097-.532.111-1.288.321-2.031.351-.736.029-1.435-.188-1.934-.306-.357-.085-.653-.126-.863-.117-.249.011-1.925.052-1.925.052l.046.011a1 1 0 1 0-.502 1.936c.324.084 2.136.014 2.472-.001.128-.006.319.066.56.125.617.152 1.406.331 2.226.298.75-.03 1.514-.204 2.112-.337.25-.056.45-.118.575-.112.46.025 2.633.397 4.167.566.799.088 1.456.108 1.743.055.471-.086.768-.271 1.058-.512.297-.248.592-.594 1.865-.72 1.518-.149 1.878 1.308 2.029 1.579.296.531.742.579.931.579.435 0 .869-.104 1.3-.246.409-.136.813-.328 1.233-.352 2.731-.155 7.456.262 8.444.135.943-.122 1.942-.328 2.935-.341 1.256-.016 2.5.326 3.554 1.793a1 1 0 0 0 1.624-1.166c-2.45-3.413-5.596-2.626-8.367-2.27-.973.125-5.618-.3-8.303-.147-.426.024-.847.14-1.263.282-.21.071-.417.157-.624.22Z"/>
</svg>
