<svg viewBox="0 0 75 10" xmlns="http://www.w3.org/2000/svg" xml:space="preserve" style="fill-rule:evenodd;clip-rule:evenodd;stroke-linejoin:round;stroke-miterlimit:2">
  <path d="M1.882 7.303c1.496.059 2.634-.359 3.977-.93 1.799-.765 4.018-1.805 8.384-2.037 5.073-.268 8.42 1.015 11.112 2.023 1.957.734 3.603 1.313 5.269 1.203 3.136-.206 4.338-.973 5.629-1.725 1.143-.665 2.367-1.307 5.459-1.433 2.068-.084 3.746.42 5.402.976 1.794.602 3.563 1.261 5.699 1.432 1.566.125 2.562-.323 3.682-.876.937-.462 1.979-1.002 3.718-1.181 2.531-.259 3.694.32 4.665.807.821.412 1.54.747 2.588.697 1.06-.05 1.92-.497 2.763-.98.654-.374 1.292-.78 2.087-.865a.75.75 0 0 0-.16-1.492c-1.011.109-1.841.58-2.673 1.056-.641.367-1.281.745-2.088.783-.752.035-1.256-.244-1.845-.539-1.143-.574-2.51-1.264-5.491-.959-1.974.203-3.163.802-4.228 1.328-.884.436-1.662.825-2.899.726-2.003-.161-3.658-.795-5.341-1.359-1.819-.611-3.667-1.145-5.94-1.053-3.487.142-4.864.885-6.153 1.636-1.141.664-2.202 1.342-4.972 1.524-1.473.097-2.915-.462-4.645-1.11-2.838-1.064-6.37-2.4-11.717-2.117-4.63.246-6.985 1.343-8.892 2.154-1.128.479-2.075.862-3.332.812a.75.75 0 0 0-.058 1.499Z"/>
</svg>
