<svg viewBox="0 0 63 10" xmlns="http://www.w3.org/2000/svg" xml:space="preserve" style="fill-rule:evenodd;clip-rule:evenodd;stroke-linejoin:round;stroke-miterlimit:2">
  <path d="M28.968 6.671c.075.081.261.277.369.387.209.211.437.381.682.485 1.186.499 2.913 1.018 4.146.952.581-.031 1.127-.231 1.659-.507.55-.285 1.081-.676 1.68-.856.087-.026.176.009.267.026.169.034.338.078.504.11.486.096.957.095 1.39-.096.235-.104.554-.307.921-.494.298-.152.646-.342 1.005-.224.519.171.673.57.77.863.089.27.154.503.225.654.139.294.331.471.517.575.229.128.484.18.781.119.908-.189 1.788-.685 2.653-1.194.665-.391 1.315-.799 1.994-.926.657-.124 1.321.001 1.986.125.874.163 1.75.337 2.616.273 1.434-.106 2.771-.774 4.193-.871.747-.05 1.626.136 2.455.115.764-.019 1.49-.186 2.116-.633a1 1 0 1 0-1.161-1.628c-.393.28-.878.278-1.364.258-.749-.031-1.514-.152-2.181-.107-1.426.096-2.767.765-4.206.872-.697.051-1.398-.114-2.101-.245-.911-.17-1.823-.295-2.723-.125-.891.168-1.766.655-2.638 1.168-.444.262-.887.533-1.339.728l-.029-.075c-.278-.693-.785-1.466-1.939-1.846-.633-.208-1.266-.148-1.851.048-.6.202-1.132.57-1.485.73a1.747 1.747 0 0 1-.159-.015c-.152-.026-.307-.067-.463-.1-.449-.096-.9-.129-1.329-.001-.618.186-1.188.531-1.754.849-.364.204-.718.411-1.117.433-.963.051-2.297-.394-3.233-.786-.025-.025-.119-.116-.169-.17a4.953 4.953 0 0 0-.391-.4 1.75 1.75 0 0 0-.87-.431c-.453-.074-.91-.049-1.37.012-.468.063-.939.181-1.408.139-.226-.02-.712-.266-1.372-.514-1.273-.48-3.021-1.036-4.767-.979-1.775.058-3.557.713-4.899 1.189a15.63 15.63 0 0 1-1.314.382c-.574-.169-1.06-.665-1.578-1.04-.563-.409-1.148-.724-1.769-.807-1.553-.207-3.09.093-4.622.387-1.299.249-2.594.5-3.903.241a1 1 0 0 0-.388 1.962c1.564.31 3.115.059 4.668-.239 1.321-.253 2.642-.547 3.98-.368.421.056.776.374 1.156.665.634.484 1.288.963 2 1.148.381.099 1.02.027 1.82-.234 1.23-.402 3.072-1.227 4.914-1.287 1.725-.056 3.444.633 4.534 1.058.632.246 1.114.406 1.364.429.53.047 1.064-.032 1.595-.113.312-.047.623-.101.932-.071Z"/>
</svg>
